<svg width="24" height="24" viewBox="0 0 24 24" fill="none" xmlns="http://www.w3.org/2000/svg">
<path d="M16.1599 20.7265C16.0155 21.6355 15.5157 22.4667 14.7522 23.0679C13.9886 23.6691 13.0124 24 12.0024 24C10.9924 24 10.0162 23.6691 9.25263 23.0679C8.48908 22.4667 7.9893 21.6355 7.84485 20.7265H16.1599ZM12.0024 2.56732e-07C14.6539 -0.000225509 17.2013 0.938836 19.1041 2.618C21.0069 4.29716 22.1155 6.58432 22.1947 8.99435V9.27249H22.1995V13.7577L23.8956 17.7324C23.9412 17.84 23.972 17.9512 23.988 18.0661L24 18.2374C24.0002 18.5832 23.8592 18.9168 23.6043 19.1736C23.3495 19.4303 22.9989 19.5919 22.6205 19.627L22.4646 19.6335H1.53657C1.30004 19.6337 1.06667 19.5842 0.854668 19.4888C0.642661 19.3935 0.457747 19.2549 0.314351 19.0838C0.170955 18.9128 0.0729549 18.7139 0.0279947 18.5028C-0.0169655 18.2916 -0.00766991 18.0739 0.0551567 17.8665L0.105536 17.7313L1.80406 13.7566V9.27358C1.80374 8.05567 2.06732 6.84965 2.57972 5.7244C3.09212 4.59914 3.84331 3.57672 4.79038 2.71553C5.73744 1.85434 6.86182 1.17127 8.09928 0.705326C9.33674 0.239386 10.663 -0.000286343 12.0024 2.56732e-07Z" fill="#E6E6E6"/>
</svg>
