<svg width="18" height="18" viewBox="0 0 18 18" fill="none" xmlns="http://www.w3.org/2000/svg">
<path d="M3.125 0C2.2962 0 1.50134 0.32924 0.915291 0.915291C0.32924 1.50134 0 2.2962 0 3.125V14.875C0 15.7038 0.32924 16.4987 0.915291 17.0847C1.50134 17.6708 2.2962 18 3.125 18H14.875C15.7038 18 16.4987 17.6708 17.0847 17.0847C17.6708 16.4987 18 15.7038 18 14.875V3.125C18 2.2962 17.6708 1.50134 17.0847 0.915291C16.4987 0.32924 15.7038 0 14.875 0H3.125ZM1.25 3.125C1.25 2.62772 1.44754 2.15081 1.79917 1.79917C2.15081 1.44754 2.62772 1.25 3.125 1.25H14.875C15.3723 1.25 15.8492 1.44754 16.2008 1.79917C16.5525 2.15081 16.75 2.62772 16.75 3.125V14.875C16.75 15.3723 16.5525 15.8492 16.2008 16.2008C15.8492 16.5525 15.3723 16.75 14.875 16.75H3.125C2.62772 16.75 2.15081 16.5525 1.79917 16.2008C1.44754 15.8492 1.25 15.3723 1.25 14.875V3.125ZM14 4.625C14 4.45924 13.9342 4.30027 13.8169 4.18306C13.6997 4.06585 13.5408 4 13.375 4C13.2092 4 13.0503 4.06585 12.9331 4.18306C12.8158 4.30027 12.75 4.45924 12.75 4.625V13.375C12.75 13.5408 12.8158 13.6997 12.9331 13.8169C13.0503 13.9342 13.2092 14 13.375 14C13.5408 14 13.6997 13.9342 13.8169 13.8169C13.9342 13.6997 14 13.5408 14 13.375V4.625ZM9 9C9.345 9 9.625 9.28 9.625 9.625V13.375C9.625 13.5408 9.55915 13.6997 9.44194 13.8169C9.32473 13.9342 9.16576 14 9 14C8.83424 14 8.67527 13.9342 8.55806 13.8169C8.44085 13.6997 8.375 13.5408 8.375 13.375V9.625C8.375 9.28 8.655 9 9 9ZM5.25 7.125C5.25 6.95924 5.18415 6.80027 5.06694 6.68306C4.94973 6.56585 4.79076 6.5 4.625 6.5C4.45924 6.5 4.30027 6.56585 4.18306 6.68306C4.06585 6.80027 4 6.95924 4 7.125V13.375C4 13.5408 4.06585 13.6997 4.18306 13.8169C4.30027 13.9342 4.45924 14 4.625 14C4.79076 14 4.94973 13.9342 5.06694 13.8169C5.18415 13.6997 5.25 13.5408 5.25 13.375V7.125Z" fill="#E6E6E6"/>
</svg>
