<svg width="10" height="10" viewBox="0 0 10 10" fill="none" xmlns="http://www.w3.org/2000/svg">
<g clip-path="url(#clip0_440_279)">
<path d="M5.82491 9.78328C5.76673 9.70822 5.73084 9.61831 5.72133 9.52381C5.71183 9.42932 5.7291 9.33406 5.77116 9.24891C5.88116 9.03516 5.92429 8.79078 5.89616 8.55016C5.87321 8.37844 5.8165 8.21297 5.72929 8.06328C5.64368 7.91523 5.52859 7.78632 5.39116 7.68453C4.92388 7.33334 4.59597 6.82809 4.46554 6.25828C3.39804 7.65766 3.80741 8.45203 4.31866 9.15203C4.37841 9.23417 4.40986 9.3335 4.40829 9.43506C4.40671 9.53662 4.37218 9.63492 4.30991 9.71516C4.24626 9.79627 4.16086 9.85762 4.06366 9.89203C3.96758 9.92569 3.86378 9.93069 3.76491 9.90641C3.07429 9.73766 2.42429 9.41641 1.98366 8.90453C1.73407 8.62007 1.5418 8.29007 1.41741 7.93266C1.29165 7.57216 1.23586 7.19096 1.25304 6.80953C1.25304 6.80953 1.16991 5.27016 3.02616 3.76203C3.02616 3.76203 5.21991 1.90078 4.45866 0.524534C4.43054 0.45685 4.42219 0.382577 4.43458 0.310337C4.44697 0.238097 4.47959 0.170853 4.52866 0.116409C4.5764 0.0631422 4.63931 0.0257807 4.70893 0.00935436C4.77855 -0.00707197 4.85152 -0.00177438 4.91804 0.0245339L5.00929 0.0607839C5.83558 0.583101 6.4814 1.34674 6.85929 2.24828C7.22179 3.13141 7.21929 4.16078 6.97429 5.07766C7.17741 4.89516 7.34679 4.67703 7.47491 4.43203L7.49304 4.39203C7.61679 4.09391 8.00616 4.18891 8.15241 4.38391C8.20616 4.46953 9.58491 6.47328 8.84429 8.16391C8.57386 8.67638 8.17827 9.11217 7.69429 9.43078C7.28862 9.70049 6.83502 9.88995 6.35804 9.98891C6.25948 10.0098 6.15698 10.0016 6.06304 9.96516C5.96827 9.9282 5.88577 9.86541 5.82491 9.78391V9.78328ZM4.72116 4.93266C4.77946 4.90195 4.84717 4.89429 4.91085 4.9112C4.97453 4.9281 5.02952 4.96833 5.06491 5.02391C5.08991 5.06141 5.10554 5.10266 5.11179 5.14766L5.13991 5.36578C5.15241 5.68516 5.14866 6.01891 5.27304 6.32578C5.40179 6.64078 5.60179 6.91953 5.85554 7.13703C6.18244 7.35214 6.43549 7.66234 6.58054 8.02578C6.71804 8.37828 6.73679 8.76953 6.63304 9.13391C6.9506 9.03412 7.24568 8.87342 7.50179 8.66078L7.56616 8.60828C7.77616 8.43516 7.94929 8.21891 8.07429 7.97266C8.19991 7.72703 8.27554 7.45703 8.29554 7.17953C8.33616 6.53891 8.11804 5.89578 7.77866 5.32203C7.62366 5.54703 7.40991 5.72141 7.16304 5.82453C7.00866 5.89016 6.84491 5.93078 6.67804 5.94328C6.58248 5.94915 6.48725 5.92746 6.40366 5.88078C6.31885 5.83267 6.24932 5.76162 6.20304 5.67578C6.16491 5.60653 6.14312 5.52947 6.13933 5.45051C6.13554 5.37154 6.14985 5.29275 6.18116 5.22016C6.43866 4.61266 6.51866 3.93891 6.40929 3.28453C6.27997 2.53581 5.92138 1.84571 5.38304 1.30953C5.28554 2.68766 3.87241 3.97078 3.58241 4.24703C3.53726 4.28917 3.49056 4.32961 3.44241 4.36828C1.92616 5.59641 2.02991 6.71516 2.02991 6.76453C2.00059 7.2089 2.10021 7.65229 2.31679 8.04141C2.54491 8.44453 2.87304 8.77703 3.26679 9.00391C2.81241 8.00516 2.81241 6.80641 4.48929 5.08766L4.72179 4.93141L4.72116 4.93266Z" fill="#B3B3B3"/>
</g>
<defs>
<clipPath id="clip0_440_279">
<rect width="10" height="10" fill="white"/>
</clipPath>
</defs>
</svg>
